<svg xmlns="http://www.w3.org/2000/svg" viewBox="0 0 1920 919" preserveAspectRatio="xMidYMid" width="1920" height="919" style="shape-rendering: auto; display: block; background: rgb(26, 27, 32);"><g data-idx="1"><path stroke-width="2" stroke-opacity="0" stroke="rgb(45, 155, 221)" fill="none" d="M 0 555.064 C 320 555.064 640 602.936 960 602.936 C 1280 602.936 1600 555.064 1920 555.064 C 2240 555.064 2560 602.936 2880 602.936 C 3200 602.936 3520 555.064 3840 555.064" data-idx="2" transform="matrix(1,0,0,1,-393.6033630371094,0)">
  
  
  
</path><path stroke-width="2" stroke-opacity="0" stroke="rgb(44, 156, 221)" fill="none" d="M 0 557.731 C 320 557.731 640 600.269 960 600.269 C 1280 600.269 1600 557.731 1920 557.731 C 2240 557.731 2560 600.269 2880 600.269 C 3200 600.269 3520 557.731 3840 557.731" data-idx="6" transform="matrix(1,0,0,1,-403.84320068359375,0)">
  
  
  
</path><path stroke-width="2" stroke-opacity="0" stroke="rgb(44, 157, 221)" fill="none" d="M 0 560.459 C 320 560.459 640 597.541 960 597.541 C 1280 597.541 1600 560.459 1920 560.459 C 2240 560.459 2560 597.541 2880 597.541 C 3200 597.541 3520 560.459 3840 560.459" data-idx="10" transform="matrix(1,0,0,1,-414.0830383300781,0)">
  
  
  
</path><path stroke-width="2" stroke-opacity="0" stroke="rgb(43, 157, 222)" fill="none" d="M 0 563.242 C 320 563.242 640 594.758 960 594.758 C 1280 594.758 1600 563.242 1920 563.242 C 2240 563.242 2560 594.758 2880 594.758 C 3200 594.758 3520 563.242 3840 563.242" data-idx="14" transform="matrix(1,0,0,1,-424.3233642578125,0)">
  
  
  
</path><path stroke-width="2" stroke-opacity="0" stroke="rgb(43, 158, 222)" fill="none" d="M 0 566.073 C 320 566.073 640 591.927 960 591.927 C 1280 591.927 1600 566.073 1920 566.073 C 2240 566.073 2560 591.927 2880 591.927 C 3200 591.927 3520 566.073 3840 566.073" data-idx="18" transform="matrix(1,0,0,1,-434.5632019042969,0)">
  
  
  
</path><path stroke-width="2" stroke-opacity="0" stroke="rgb(42, 158, 222)" fill="none" d="M 0 568.945 C 320 568.945 640 589.055 960 589.055 C 1280 589.055 1600 568.945 1920 568.945 C 2240 568.945 2560 589.055 2880 589.055 C 3200 589.055 3520 568.945 3840 568.945" data-idx="22" transform="matrix(1,0,0,1,-444.80303955078125,0)">
  
  
  
</path><path stroke-width="2" stroke-opacity="0" stroke="rgb(42, 159, 222)" fill="none" d="M 0 571.848 C 320 571.848 640 586.152 960 586.152 C 1280 586.152 1600 571.848 1920 571.848 C 2240 571.848 2560 586.152 2880 586.152 C 3200 586.152 3520 571.848 3840 571.848" data-idx="26" transform="matrix(1,0,0,1,-455.0433654785156,0)">
  
  
  
</path><path stroke-width="2" stroke-opacity="0" stroke="rgb(42, 159, 222)" fill="none" d="M 0 574.774 C 320 574.774 640 583.226 960 583.226 C 1280 583.226 1600 574.774 1920 574.774 C 2240 574.774 2560 583.226 2880 583.226 C 3200 583.226 3520 574.774 3840 574.774" data-idx="30" transform="matrix(1,0,0,1,-465.283203125,0)">
  
  
  
</path><path stroke-width="2" stroke-opacity="0" stroke="rgb(42, 159, 222)" fill="none" d="M 0 577.713 C 320 577.713 640 580.287 960 580.287 C 1280 580.287 1600 577.713 1920 577.713 C 2240 577.713 2560 580.287 2880 580.287 C 3200 580.287 3520 577.713 3840 577.713" data-idx="34" transform="matrix(1,0,0,1,-475.5230407714844,0)">
  
  
  
</path><path stroke-width="2" stroke-opacity="0" stroke="rgb(42, 159, 222)" fill="none" d="M 0 580.657 C 320 580.657 640 577.343 960 577.343 C 1280 577.343 1600 580.657 1920 580.657 C 2240 580.657 2560 577.343 2880 577.343 C 3200 577.343 3520 580.657 3840 580.657" data-idx="38" transform="matrix(1,0,0,1,-485.76336669921875,0)">
  
  
  
</path><path stroke-width="2" stroke-opacity="0" stroke="rgb(42, 159, 222)" fill="none" d="M 0 583.595 C 320 583.595 640 574.405 960 574.405 C 1280 574.405 1600 583.595 1920 583.595 C 2240 583.595 2560 574.405 2880 574.405 C 3200 574.405 3520 583.595 3840 583.595" data-idx="42" transform="matrix(1,0,0,1,-496.003173828125,0)">
  
  
  
</path><path stroke-width="2" stroke-opacity="0" stroke="rgb(42, 159, 222)" fill="none" d="M 0 586.518 C 320 586.518 640 571.482 960 571.482 C 1280 571.482 1600 586.518 1920 586.518 C 2240 586.518 2560 571.482 2880 571.482 C 3200 571.482 3520 586.518 3840 586.518" data-idx="46" transform="matrix(1,0,0,1,-506.2430114746094,0)">
  
  
  
</path><path stroke-width="2" stroke-opacity="0" stroke="rgb(42, 160, 221)" fill="none" d="M 0 589.418 C 320 589.418 640 568.582 960 568.582 C 1280 568.582 1600 589.418 1920 589.418 C 2240 589.418 2560 568.582 2880 568.582 C 3200 568.582 3520 589.418 3840 589.418" data-idx="50" transform="matrix(1,0,0,1,-516.4833374023438,0)">
  
  
  
</path><path stroke-width="2" stroke-opacity="0" stroke="rgb(42, 160, 221)" fill="none" d="M 0 592.285 C 320 592.285 640 565.715 960 565.715 C 1280 565.715 1600 592.285 1920 592.285 C 2240 592.285 2560 565.715 2880 565.715 C 3200 565.715 3520 592.285 3840 592.285" data-idx="54" transform="matrix(1,0,0,1,-526.7232055664062,0)">
  
  
  
</path><path stroke-width="2" stroke-opacity="0" stroke="rgb(42, 160, 221)" fill="none" d="M 0 595.11 C 320 595.11 640 562.89 960 562.89 C 1280 562.89 1600 595.11 1920 595.11 C 2240 595.11 2560 562.89 2880 562.89 C 3200 562.89 3520 595.11 3840 595.11" data-idx="58" transform="matrix(1,0,0,1,-536.9630126953125,0)">
  
  
  
</path><path stroke-width="2" stroke-opacity="0" stroke="rgb(42, 161, 220)" fill="none" d="M 0 597.887 C 320 597.887 640 560.113 960 560.113 C 1280 560.113 1600 597.887 1920 597.887 C 2240 597.887 2560 560.113 2880 560.113 C 3200 560.113 3520 597.887 3840 597.887" data-idx="62" transform="matrix(1,0,0,1,-547.203369140625,0)">
  
  
  
</path><path stroke-width="2" stroke-opacity="0" stroke="rgb(42, 162, 219)" fill="none" d="M 0 600.608 C 320 600.608 640 557.392 960 557.392 C 1280 557.392 1600 600.608 1920 600.608 C 2240 600.608 2560 557.392 2880 557.392 C 3200 557.392 3520 600.608 3840 600.608" data-idx="66" transform="matrix(1,0,0,1,-557.4431762695312,0)">
  
  
  
</path><path stroke-width="2" stroke-opacity="0" stroke="rgb(42, 163, 218)" fill="none" d="M 0 603.267 C 320 603.267 640 554.733 960 554.733 C 1280 554.733 1600 603.267 1920 603.267 C 2240 603.267 2560 554.733 2880 554.733 C 3200 554.733 3520 603.267 3840 603.267" data-idx="70" transform="matrix(1,0,0,1,-567.6830444335938,0)">
  
  
  
</path><path stroke-width="2" stroke-opacity="0" stroke="rgb(41, 164, 217)" fill="none" d="M 0 605.858 C 320 605.858 640 552.142 960 552.142 C 1280 552.142 1600 605.858 1920 605.858 C 2240 605.858 2560 552.142 2880 552.142 C 3200 552.142 3520 605.858 3840 605.858" data-idx="74" transform="matrix(1,0,0,1,-577.9234008789062,0)">
  
  
  
</path><path stroke-width="2" stroke-opacity="0" stroke="rgb(41, 165, 216)" fill="none" d="M 0 608.377 C 320 608.377 640 549.623 960 549.623 C 1280 549.623 1600 608.377 1920 608.377 C 2240 608.377 2560 549.623 2880 549.623 C 3200 549.623 3520 608.377 3840 608.377" data-idx="78" transform="matrix(1,0,0,1,-588.1632080078125,0)">
  
  
  
</path><path stroke-width="2" stroke-opacity="0" stroke="rgb(41, 166, 215)" fill="none" d="M 0 610.819 C 320 610.819 640 547.181 960 547.181 C 1280 547.181 1600 610.819 1920 610.819 C 2240 610.819 2560 547.181 2880 547.181 C 3200 547.181 3520 610.819 3840 610.819" data-idx="82" transform="matrix(1,0,0,1,-598.4030151367188,0)">
  
  
  
</path><path stroke-width="2" stroke-opacity="0" stroke="rgb(41, 168, 213)" fill="none" d="M 0 613.181 C 320 613.181 640 544.819 960 544.819 C 1280 544.819 1600 613.181 1920 613.181 C 2240 613.181 2560 544.819 2880 544.819 C 3200 544.819 3520 613.181 3840 613.181" data-idx="86" transform="matrix(1,0,0,1,-608.6433715820312,0)">
  
  
  
</path><path stroke-width="2" stroke-opacity="0" stroke="rgb(41, 169, 212)" fill="none" d="M 0 615.461 C 320 615.461 640 542.539 960 542.539 C 1280 542.539 1600 615.461 1920 615.461 C 2240 615.461 2560 542.539 2880 542.539 C 3200 542.539 3520 615.461 3840 615.461" data-idx="90" transform="matrix(1,0,0,1,-618.8831787109375,0)">
  
  
  
</path><path stroke-width="2" stroke-opacity="0" stroke="rgb(40, 171, 210)" fill="none" d="M 0 617.657 C 320 617.657 640 540.343 960 540.343 C 1280 540.343 1600 617.657 1920 617.657 C 2240 617.657 2560 540.343 2880 540.343 C 3200 540.343 3520 617.657 3840 617.657" data-idx="94" transform="matrix(1,0,0,1,-629.123046875,0)">
  
  
  
</path><path stroke-width="2" stroke-opacity="0" stroke="rgb(40, 173, 208)" fill="none" d="M 0 619.767 C 320 619.767 640 538.233 960 538.233 C 1280 538.233 1600 619.767 1920 619.767 C 2240 619.767 2560 538.233 2880 538.233 C 3200 538.233 3520 619.767 3840 619.767" data-idx="98" transform="matrix(1,0,0,1,-639.3634033203125,0)">
  
  
  
</path><path stroke-width="2" stroke-opacity="0" stroke="rgb(40, 175, 206)" fill="none" d="M 0 621.791 C 320 621.791 640 536.209 960 536.209 C 1280 536.209 1600 621.791 1920 621.791 C 2240 621.791 2560 536.209 2880 536.209 C 3200 536.209 3520 621.791 3840 621.791" data-idx="102" transform="matrix(1,0,0,1,-649.6032104492188,0)">
  
  
  
</path><path stroke-width="2" stroke-opacity="0" stroke="rgb(40, 177, 204)" fill="none" d="M 0 623.729 C 320 623.729 640 534.271 960 534.271 C 1280 534.271 1600 623.729 1920 623.729 C 2240 623.729 2560 534.271 2880 534.271 C 3200 534.271 3520 623.729 3840 623.729" data-idx="106" transform="matrix(1,0,0,1,-659.843017578125,0)">
  
  
  
</path><path stroke-width="2" stroke-opacity="0" stroke="rgb(39, 180, 201)" fill="none" d="M 0 625.579 C 320 625.579 640 532.421 960 532.421 C 1280 532.421 1600 625.579 1920 625.579 C 2240 625.579 2560 532.421 2880 532.421 C 3200 532.421 3520 625.579 3840 625.579" data-idx="110" transform="matrix(1,0,0,1,-670.0833129882812,0)">
  
  
  
</path><path stroke-width="2" stroke-opacity="0" stroke="rgb(39, 182, 199)" fill="none" d="M 0 627.344 C 320 627.344 640 530.656 960 530.656 C 1280 530.656 1600 627.344 1920 627.344 C 2240 627.344 2560 530.656 2880 530.656 C 3200 530.656 3520 627.344 3840 627.344" data-idx="114" transform="matrix(1,0,0,1,-680.3232421875,0)">
  
  
  
</path><path stroke-width="2" stroke-opacity="0" stroke="rgb(39, 185, 196)" fill="none" d="M 0 629.024 C 320 629.024 640 528.976 960 528.976 C 1280 528.976 1600 629.024 1920 629.024 C 2240 629.024 2560 528.976 2880 528.976 C 3200 528.976 3520 629.024 3840 629.024" data-idx="118" transform="matrix(1,0,0,1,-690.5630493164062,0)">
  
  
  
</path><path stroke-width="2" stroke-opacity="0" stroke="rgb(38, 188, 193)" fill="none" d="M 0 630.619 C 320 630.619 640 527.381 960 527.381 C 1280 527.381 1600 630.619 1920 630.619 C 2240 630.619 2560 527.381 2880 527.381 C 3200 527.381 3520 630.619 3840 630.619" data-idx="122" transform="matrix(1,0,0,1,-700.8033447265625,0)">
  
  
  
</path><path stroke-width="2" stroke-opacity="0" stroke="rgb(38, 191, 190)" fill="none" d="M 0 632.131 C 320 632.131 640 525.869 960 525.869 C 1280 525.869 1600 632.131 1920 632.131 C 2240 632.131 2560 525.869 2880 525.869 C 3200 525.869 3520 632.131 3840 632.131" data-idx="126" transform="matrix(1,0,0,1,-711.043212890625,0)">
  
  
  
</path><path stroke-width="2" stroke-opacity="0" stroke="rgb(37, 194, 187)" fill="none" d="M 0 633.562 C 320 633.562 640 524.438 960 524.438 C 1280 524.438 1600 633.562 1920 633.562 C 2240 633.562 2560 524.438 2880 524.438 C 3200 524.438 3520 633.562 3840 633.562" data-idx="130" transform="matrix(1,0,0,1,-721.2830810546875,0)">
  
  
  
</path><path stroke-width="2" stroke-opacity="0" stroke="rgb(37, 197, 184)" fill="none" d="M 0 634.912 C 320 634.912 640 523.088 960 523.088 C 1280 523.088 1600 634.912 1920 634.912 C 2240 634.912 2560 523.088 2880 523.088 C 3200 523.088 3520 634.912 3840 634.912" data-idx="134" transform="matrix(1,0,0,1,-731.5233154296875,0)">
  
  
  
</path><path stroke-width="2" stroke-opacity="0" stroke="rgb(37, 200, 181)" fill="none" d="M 0 636.185 C 320 636.185 640 521.815 960 521.815 C 1280 521.815 1600 636.185 1920 636.185 C 2240 636.185 2560 521.815 2880 521.815 C 3200 521.815 3520 636.185 3840 636.185" data-idx="138" transform="matrix(1,0,0,1,-741.76318359375,0)">
  
  
  
</path><path stroke-width="2" stroke-opacity="0" stroke="rgb(36, 203, 178)" fill="none" d="M 0 637.38 C 320 637.38 640 520.62 960 520.62 C 1280 520.62 1600 637.38 1920 637.38 C 2240 637.38 2560 520.62 2880 520.62 C 3200 520.62 3520 637.38 3840 637.38" data-idx="142" transform="matrix(1,0,0,1,-752.0030517578125,0)">
  
  
  
</path><path stroke-width="2" stroke-opacity="0" stroke="rgb(36, 205, 176)" fill="none" d="M 0 638.502 C 320 638.502 640 519.498 960 519.498 C 1280 519.498 1600 638.502 1920 638.502 C 2240 638.502 2560 519.498 2880 519.498 C 3200 519.498 3520 638.502 3840 638.502" data-idx="146" transform="matrix(1,0,0,1,-762.2433471679688,0)">
  
  
  
</path><path stroke-width="2" stroke-opacity="0" stroke="rgb(36, 208, 173)" fill="none" d="M 0 639.55 C 320 639.55 640 518.45 960 518.45 C 1280 518.45 1600 639.55 1920 639.55 C 2240 639.55 2560 518.45 2880 518.45 C 3200 518.45 3520 639.55 3840 639.55" data-idx="150" transform="matrix(1,0,0,1,-772.483154296875,0)">
  
  
  
</path><path stroke-width="2" stroke-opacity="0" stroke="rgb(35, 210, 171)" fill="none" d="M 0 640.527 C 320 640.527 640 517.473 960 517.473 C 1280 517.473 1600 640.527 1920 640.527 C 2240 640.527 2560 517.473 2880 517.473 C 3200 517.473 3520 640.527 3840 640.527" data-idx="154" transform="matrix(1,0,0,1,-782.7230834960938,0)">
  
  
  
</path><path stroke-width="2" stroke-opacity="0" stroke="rgb(35, 212, 169)" fill="none" d="M 0 641.435 C 320 641.435 640 516.565 960 516.565 C 1280 516.565 1600 641.435 1920 641.435 C 2240 641.435 2560 516.565 2880 516.565 C 3200 516.565 3520 641.435 3840 641.435" data-idx="158" transform="matrix(1,0,0,1,-792.96337890625,0)">
  
  
  
</path><path stroke-width="2" stroke-opacity="0" stroke="rgb(35, 215, 166)" fill="none" d="M 0 642.276 C 320 642.276 640 515.724 960 515.724 C 1280 515.724 1600 642.276 1920 642.276 C 2240 642.276 2560 515.724 2880 515.724 C 3200 515.724 3520 642.276 3840 642.276" data-idx="162" transform="matrix(1,0,0,1,-803.2031860351562,0)">
  
  
  
</path><path stroke-width="2" stroke-opacity="0" stroke="rgb(34, 217, 164)" fill="none" d="M 0 643.051 C 320 643.051 640 514.949 960 514.949 C 1280 514.949 1600 643.051 1920 643.051 C 2240 643.051 2560 514.949 2880 514.949 C 3200 514.949 3520 643.051 3840 643.051" data-idx="166" transform="matrix(1,0,0,1,-813.4429931640625,0)">
  
  
  
</path><path stroke-width="2" stroke-opacity="0" stroke="rgb(34, 218, 163)" fill="none" d="M 0 643.763 C 320 643.763 640 514.237 960 514.237 C 1280 514.237 1600 643.763 1920 643.763 C 2240 643.763 2560 514.237 2880 514.237 C 3200 514.237 3520 643.763 3840 643.763" data-idx="170" transform="matrix(1,0,0,1,-823.683349609375,0)">
  
  
  
</path><path stroke-width="2" stroke-opacity="0" stroke="rgb(34, 220, 161)" fill="none" d="M 0 644.413 C 320 644.413 640 513.587 960 513.587 C 1280 513.587 1600 644.413 1920 644.413 C 2240 644.413 2560 513.587 2880 513.587 C 3200 513.587 3520 644.413 3840 644.413" data-idx="174" transform="matrix(1,0,0,1,-833.9232177734375,0)">
  
  
  
</path><path stroke-width="2" stroke-opacity="0" stroke="rgb(34, 221, 160)" fill="none" d="M 0 645.003 C 320 645.003 640 512.997 960 512.997 C 1280 512.997 1600 645.003 1920 645.003 C 2240 645.003 2560 512.997 2880 512.997 C 3200 512.997 3520 645.003 3840 645.003" data-idx="178" transform="matrix(1,0,0,1,-844.1630249023438,0)">
  
  
  
</path><path stroke-width="2" stroke-opacity="0" stroke="rgb(34, 223, 158)" fill="none" d="M 0 645.535 C 320 645.535 640 512.465 960 512.465 C 1280 512.465 1600 645.535 1920 645.535 C 2240 645.535 2560 512.465 2880 512.465 C 3200 512.465 3520 645.535 3840 645.535" data-idx="182" transform="matrix(1,0,0,1,-854.4033813476562,0)">
  
  
  
</path><path stroke-width="2" stroke-opacity="0.022727272727272728" stroke="rgb(34, 224, 157)" fill="none" d="M 0 646.01 C 320 646.01 640 511.99 960 511.99 C 1280 511.99 1600 646.01 1920 646.01 C 2240 646.01 2560 511.99 2880 511.99 C 3200 511.99 3520 646.01 3840 646.01" data-idx="186" transform="matrix(1,0,0,1,-864.6431884765625,0)">
  
  
  
</path><path stroke-width="2" stroke-opacity="0.045454545454545456" stroke="rgb(33, 225, 156)" fill="none" d="M 0 646.431 C 320 646.431 640 511.569 960 511.569 C 1280 511.569 1600 646.431 1920 646.431 C 2240 646.431 2560 511.569 2880 511.569 C 3200 511.569 3520 646.431 3840 646.431" data-idx="190" transform="matrix(1,0,0,1,-874.8829956054688,0)">
  
  
  
</path><path stroke-width="2" stroke-opacity="0.06818181818181818" stroke="rgb(33, 225, 156)" fill="none" d="M 0 646.798 C 320 646.798 640 511.202 960 511.202 C 1280 511.202 1600 646.798 1920 646.798 C 2240 646.798 2560 511.202 2880 511.202 C 3200 511.202 3520 646.798 3840 646.798" data-idx="194" transform="matrix(1,0,0,1,-885.1233520507812,0)">
  
  
  
</path><path stroke-width="2" stroke-opacity="0.09090909090909091" stroke="rgb(33, 226, 155)" fill="none" d="M 0 647.113 C 320 647.113 640 510.887 960 510.887 C 1280 510.887 1600 647.113 1920 647.113 C 2240 647.113 2560 510.887 2880 510.887 C 3200 510.887 3520 647.113 3840 647.113" data-idx="198" transform="matrix(1,0,0,1,-895.3632202148438,0)">
  
  
  
</path><path stroke-width="2" stroke-opacity="0.11363636363636363" stroke="rgb(33, 227, 154)" fill="none" d="M 0 647.378 C 320 647.378 640 510.622 960 510.622 C 1280 510.622 1600 647.378 1920 647.378 C 2240 647.378 2560 510.622 2880 510.622 C 3200 510.622 3520 647.378 3840 647.378" data-idx="202" transform="matrix(1,0,0,1,-905.60302734375,0)">
  
  
  
</path><path stroke-width="2" stroke-opacity="0.13636363636363635" stroke="rgb(33, 227, 154)" fill="none" d="M 0 647.594 C 320 647.594 640 510.406 960 510.406 C 1280 510.406 1600 647.594 1920 647.594 C 2240 647.594 2560 510.406 2880 510.406 C 3200 510.406 3520 647.594 3840 647.594" data-idx="206" transform="matrix(1,0,0,1,-915.8433837890625,0)">
  
  
  
</path><path stroke-width="2" stroke-opacity="0.1590909090909091" stroke="rgb(33, 228, 153)" fill="none" d="M 0 647.763 C 320 647.763 640 510.237 960 510.237 C 1280 510.237 1600 647.763 1920 647.763 C 2240 647.763 2560 510.237 2880 510.237 C 3200 510.237 3520 647.763 3840 647.763" data-idx="210" transform="matrix(1,0,0,1,-926.0831909179688,0)">
  
  
  
</path><path stroke-width="2" stroke-opacity="0.18181818181818182" stroke="rgb(33, 228, 153)" fill="none" d="M 0 647.886 C 320 647.886 640 510.114 960 510.114 C 1280 510.114 1600 647.886 1920 647.886 C 2240 647.886 2560 510.114 2880 510.114 C 3200 510.114 3520 647.886 3840 647.886" data-idx="214" transform="matrix(1,0,0,1,-936.3230590820312,0)">
  
  
  
</path><path stroke-width="2" stroke-opacity="0.20454545454545456" stroke="rgb(33, 228, 153)" fill="none" d="M 0 647.964 C 320 647.964 640 510.036 960 510.036 C 1280 510.036 1600 647.964 1920 647.964 C 2240 647.964 2560 510.036 2880 510.036 C 3200 510.036 3520 647.964 3840 647.964" data-idx="218" transform="matrix(1,0,0,1,-946.5633544921875,0)">
  
  
  
</path><path stroke-width="2" stroke-opacity="0.22727272727272727" stroke="rgb(33, 228, 153)" fill="none" d="M 0 647.998 C 320 647.998 640 510.002 960 510.002 C 1280 510.002 1600 647.998 1920 647.998 C 2240 647.998 2560 510.002 2880 510.002 C 3200 510.002 3520 647.998 3840 647.998" data-idx="222" transform="matrix(1,0,0,1,-956.80322265625,0)">
  
  
  
</path><path stroke-width="2" stroke-opacity="0.25" stroke="rgb(33, 228, 153)" fill="none" d="M 0 647.99 C 320 647.99 640 510.01 960 510.01 C 1280 510.01 1600 647.99 1920 647.99 C 2240 647.99 2560 510.01 2880 510.01 C 3200 510.01 3520 647.99 3840 647.99" data-idx="226" transform="matrix(1,0,0,1,-967.0430297851562,0)">
  
  
  
</path><path stroke-width="2" stroke-opacity="0.2727272727272727" stroke="rgb(33, 228, 153)" fill="none" d="M 0 647.939 C 320 647.939 640 510.061 960 510.061 C 1280 510.061 1600 647.939 1920 647.939 C 2240 647.939 2560 510.061 2880 510.061 C 3200 510.061 3520 647.939 3840 647.939" data-idx="230" transform="matrix(1,0,0,1,-977.2833251953125,0)">
  
  
  
</path><path stroke-width="2" stroke-opacity="0.29545454545454547" stroke="rgb(33, 228, 153)" fill="none" d="M 0 647.845 C 320 647.845 640 510.155 960 510.155 C 1280 510.155 1600 647.845 1920 647.845 C 2240 647.845 2560 510.155 2880 510.155 C 3200 510.155 3520 647.845 3840 647.845" data-idx="234" transform="matrix(1,0,0,1,-987.5231323242188,0)">
  
  
  
</path><path stroke-width="2" stroke-opacity="0.3181818181818182" stroke="rgb(34, 228, 152)" fill="none" d="M 0 647.705 C 320 647.705 640 510.295 960 510.295 C 1280 510.295 1600 647.705 1920 647.705 C 2240 647.705 2560 510.295 2880 510.295 C 3200 510.295 3520 647.705 3840 647.705" data-idx="238" transform="matrix(1,0,0,1,-997.7630004882812,0)">
  
  
  
</path><path stroke-width="2" stroke-opacity="0.3409090909090909" stroke="rgb(34, 228, 152)" fill="none" d="M 0 647.519 C 320 647.519 640 510.481 960 510.481 C 1280 510.481 1600 647.519 1920 647.519 C 2240 647.519 2560 510.481 2880 510.481 C 3200 510.481 3520 647.519 3840 647.519" data-idx="242" transform="matrix(1,0,0,1,-1008.00341796875,0)">
  
  
  
</path><path stroke-width="2" stroke-opacity="0.36363636363636365" stroke="rgb(35, 228, 152)" fill="none" d="M 0 647.284 C 320 647.284 640 510.716 960 510.716 C 1280 510.716 1600 647.284 1920 647.284 C 2240 647.284 2560 510.716 2880 510.716 C 3200 510.716 3520 647.284 3840 647.284" data-idx="246" transform="matrix(1,0,0,1,-1018.2432250976562,0)">
  
  
  
</path><path stroke-width="2" stroke-opacity="0.38636363636363635" stroke="rgb(36, 229, 151)" fill="none" d="M 0 647.001 C 320 647.001 640 510.999 960 510.999 C 1280 510.999 1600 647.001 1920 647.001 C 2240 647.001 2560 510.999 2880 510.999 C 3200 510.999 3520 647.001 3840 647.001" data-idx="250" transform="matrix(1,0,0,1,-1028.4830322265625,0)">
  
  
  
</path><path stroke-width="2" stroke-opacity="0.4090909090909091" stroke="rgb(37, 229, 150)" fill="none" d="M 0 646.666 C 320 646.666 640 511.334 960 511.334 C 1280 511.334 1600 646.666 1920 646.666 C 2240 646.666 2560 511.334 2880 511.334 C 3200 511.334 3520 646.666 3840 646.666" data-idx="254" transform="matrix(1,0,0,1,-1038.723388671875,0)">
  
  
  
</path><path stroke-width="2" stroke-opacity="0.4318181818181818" stroke="rgb(38, 229, 149)" fill="none" d="M 0 646.279 C 320 646.279 640 511.721 960 511.721 C 1280 511.721 1600 646.279 1920 646.279 C 2240 646.279 2560 511.721 2880 511.721 C 3200 511.721 3520 646.279 3840 646.279" data-idx="258" transform="matrix(1,0,0,1,-1048.963134765625,0)">
  
  
  
</path><path stroke-width="2" stroke-opacity="0.45454545454545453" stroke="rgb(40, 229, 148)" fill="none" d="M 0 645.838 C 320 645.838 640 512.162 960 512.162 C 1280 512.162 1600 645.838 1920 645.838 C 2240 645.838 2560 512.162 2880 512.162 C 3200 512.162 3520 645.838 3840 645.838" data-idx="262" transform="matrix(1,0,0,1,-1059.2030029296875,0)">
  
  
  
</path><path stroke-width="2" stroke-opacity="0.4772727272727273" stroke="rgb(41, 230, 147)" fill="none" d="M 0 645.342 C 320 645.342 640 512.658 960 512.658 C 1280 512.658 1600 645.342 1920 645.342 C 2240 645.342 2560 512.658 2880 512.658 C 3200 512.658 3520 645.342 3840 645.342" data-idx="266" transform="matrix(1,0,0,1,-1069.443359375,0)">
  
  
  
</path><path stroke-width="2" stroke-opacity="0.5" stroke="rgb(43, 230, 146)" fill="none" d="M 0 644.789 C 320 644.789 640 513.211 960 513.211 C 1280 513.211 1600 644.789 1920 644.789 C 2240 644.789 2560 513.211 2880 513.211 C 3200 513.211 3520 644.789 3840 644.789" data-idx="270" transform="matrix(1,0,0,1,-1079.6832275390625,0)">
  
  
  
</path><path stroke-width="2" stroke-opacity="0.5227272727272727" stroke="rgb(45, 230, 145)" fill="none" d="M 0 644.176 C 320 644.176 640 513.824 960 513.824 C 1280 513.824 1600 644.176 1920 644.176 C 2240 644.176 2560 513.824 2880 513.824 C 3200 513.824 3520 644.176 3840 644.176" data-idx="274" transform="matrix(1,0,0,1,-1089.923095703125,0)">
  
  
  
</path><path stroke-width="2" stroke-opacity="0.5454545454545454" stroke="rgb(47, 231, 143)" fill="none" d="M 0 643.503 C 320 643.503 640 514.497 960 514.497 C 1280 514.497 1600 643.503 1920 643.503 C 2240 643.503 2560 514.497 2880 514.497 C 3200 514.497 3520 643.503 3840 643.503" data-idx="278" transform="matrix(1,0,0,1,-1100.163330078125,0)">
  
  
  
</path><path stroke-width="2" stroke-opacity="0.5681818181818182" stroke="rgb(50, 231, 142)" fill="none" d="M 0 642.767 C 320 642.767 640 515.232 960 515.232 C 1280 515.232 1600 642.767 1920 642.767 C 2240 642.767 2560 515.232 2880 515.232 C 3200 515.232 3520 642.767 3840 642.767" data-idx="282" transform="matrix(1,0,0,1,-1110.4031982421875,0)">
  
  
  
</path><path stroke-width="2" stroke-opacity="0.5909090909090909" stroke="rgb(52, 232, 140)" fill="none" d="M 0 641.968 C 320 641.968 640 516.032 960 516.032 C 1280 516.032 1600 641.968 1920 641.968 C 2240 641.968 2560 516.032 2880 516.032 C 3200 516.032 3520 641.968 3840 641.968" data-idx="286" transform="matrix(1,0,0,1,-1120.64306640625,0)">
  
  
  
</path><path stroke-width="2" stroke-opacity="0.6136363636363636" stroke="rgb(55, 232, 138)" fill="none" d="M 0 641.102 C 320 641.102 640 516.898 960 516.898 C 1280 516.898 1600 641.102 1920 641.102 C 2240 641.102 2560 516.898 2880 516.898 C 3200 516.898 3520 641.102 3840 641.102" data-idx="290" transform="matrix(1,0,0,1,-1130.8834228515625,0)">
  
  
  
</path><path stroke-width="2" stroke-opacity="0.6363636363636364" stroke="rgb(58, 233, 135)" fill="none" d="M 0 640.168 C 320 640.168 640 517.832 960 517.832 C 1280 517.832 1600 640.168 1920 640.168 C 2240 640.168 2560 517.832 2880 517.832 C 3200 517.832 3520 640.168 3840 640.168" data-idx="294" transform="matrix(1,0,0,1,-1141.123291015625,0)">
  
  
  
</path><path stroke-width="2" stroke-opacity="0.6590909090909091" stroke="rgb(62, 234, 133)" fill="none" d="M 0 639.164 C 320 639.164 640 518.836 960 518.836 C 1280 518.836 1600 639.164 1920 639.164 C 2240 639.164 2560 518.836 2880 518.836 C 3200 518.836 3520 639.164 3840 639.164" data-idx="298" transform="matrix(1,0,0,1,-1151.363037109375,0)">
  
  
  
</path><g data-idx="302"></g></g><text data-watermark="true" text-anchor="middle" dominant-baseline="middle" stroke-opacity="0.1" fill="black" fill-opacity="0.1" stroke="white" stroke-width="1" font-size="15.0" x="960.0" y="459.5" data-idx="303" style="opacity: 1; font-size: 15px;">LOADING.IO</text></svg>